<svg xmlns="http://www.w3.org/2000/svg" width="300" height="100" viewBox="0 0 300 100">
  <!-- Fond noir avec coins arrondis -->
  <rect width="300" height="100" fill="#000000" rx="8"></rect>
  
  <!-- Ton logo centré -->
  <g transform="translate(50, 25) scale(0.7)">
    <path fill="#ffffff" d="M23.70 35.55Q23.70 41.30 22.50 45.42Q21.30 49.55 18.70 51.75Q16.10 53.95 11.80 53.95Q5.75 53.95 2.88 49.07Q0 44.20 0 35.55Q0 29.75 1.17 25.65Q2.35 21.55 4.95 19.37Q7.55 17.20 11.80 17.20Q17.80 17.20 20.75 22.02Q23.70 26.85 23.70 35.55M4.40 35.55Q4.40 42.90 6.08 46.55Q7.75 50.20 11.80 50.20Q15.80 50.20 17.53 46.57Q19.25 42.95 19.25 35.55Q19.25 28.25 17.53 24.60Q15.80 20.95 11.80 20.95Q7.75 20.95 6.08 24.60Q4.40 28.25 4.40 35.55ZM36.75 39.75L27.50 26.65L32.50 26.65L39.40 36.75L46.25 26.65L51.20 26.65L41.95 39.75L51.70 53.45L46.70 53.45L39.40 42.75L32 53.45L27.05 53.45L36.75 39.75ZM79.85 53.45L75.55 42.40L61.40 42.40L57.15 53.45L52.60 53.45L66.55 17.60L70.60 17.60L84.50 53.45L79.85 53.45M70.20 27.60Q70.05 27.20 69.70 26.15Q69.35 25.10 69.03 23.97Q68.70 22.85 68.50 22.25Q68.25 23.25 67.98 24.27Q67.70 25.30 67.43 26.15Q67.15 27.00 66.95 27.60L62.90 38.40L74.20 38.40L70.20 27.60ZM110.70 35.55Q110.70 41.30 109.50 45.42Q108.30 49.55 105.70 51.75Q103.10 53.95 98.80 53.95Q92.75 53.95 89.88 49.07Q87.00 44.20 87.00 35.55Q87.00 29.75 88.18 25.65Q89.35 21.55 91.95 19.37Q94.55 17.20 98.80 17.20Q104.80 17.20 107.75 22.02Q110.70 26.85 110.70 35.55M91.40 35.55Q91.40 42.90 93.08 46.55Q94.75 50.20 98.80 50.20Q102.80 50.20 104.53 46.57Q106.25 42.95 106.25 35.55Q106.25 28.25 104.53 24.60Q102.80 20.95 98.80 20.95Q94.75 20.95 93.08 24.60Q91.40 28.25 91.40 35.55ZM119.80 54.15Q118.55 54.15 117.65 53.35Q116.75 52.55 116.75 50.75Q116.75 48.90 117.65 48.15Q118.55 47.40 119.80 47.40Q121.10 47.40 122.03 48.15Q122.95 48.90 122.95 50.75Q122.95 52.55 122.03 53.35Q121.10 54.15 119.80 54.15ZM140.30 53.95Q135.30 53.95 132.30 50.47Q129.30 47.00 129.30 40.10Q129.30 33.20 132.33 29.67Q135.35 26.15 140.35 26.15Q143.45 26.15 145.43 27.30Q147.40 28.45 148.65 30.10L148.95 30.10Q148.90 29.45 148.78 28.17Q148.65 26.90 148.65 26.15L148.65 15.45L153.05 15.45L153.05 53.45L149.50 53.45L148.85 49.85L148.65 49.85Q147.45 51.55 145.45 52.75Q143.45 53.95 140.30 53.95M141 50.30Q145.25 50.30 146.98 47.97Q148.70 45.65 148.70 40.95L148.70 40.15Q148.70 35.15 147.05 32.47Q145.40 29.80 140.95 29.80Q137.40 29.80 135.63 32.62Q133.85 35.45 133.85 40.20Q133.85 45.00 135.63 47.65Q137.40 50.30 141 50.30ZM171.90 26.15Q175.35 26.15 177.83 27.65Q180.30 29.15 181.63 31.87Q182.95 34.60 182.95 38.25L182.95 40.90L164.60 40.90Q164.70 45.45 166.93 47.82Q169.15 50.20 173.15 50.20Q175.70 50.20 177.68 49.72Q179.65 49.25 181.75 48.35L181.75 52.20Q179.70 53.10 177.70 53.52Q175.70 53.95 172.95 53.95Q169.15 53.95 166.23 52.40Q163.30 50.85 161.68 47.77Q160.05 44.70 160.05 40.25Q160.05 35.85 161.53 32.70Q163 29.55 165.68 27.85Q168.35 26.15 171.90 26.15M171.85 29.75Q168.70 29.75 166.88 31.77Q165.05 33.80 164.70 37.40L178.35 37.40Q178.30 34.00 176.75 31.87Q175.20 29.75 171.85 29.75ZM194.65 53.45L184.50 26.65L189.20 26.65L194.90 42.45Q195.30 43.55 195.75 44.90Q196.20 46.25 196.55 47.47Q196.90 48.70 197.05 49.55L197.25 49.55Q197.45 48.70 197.82 47.45Q198.20 46.20 198.68 44.85Q199.15 43.50 199.50 42.45L205.20 26.65L209.90 26.65L199.70 53.45L194.65 53.45ZM226.15 35.35L226.15 17.75L230.85 17.75L235.55 31.30L240.40 17.75L244.95 17.75L244.95 35.35L241.75 35.35L241.75 25.15Q241.75 24.75 241.80 23.57Q241.85 22.40 241.90 21.80L241.70 21.80L236.65 35.35L234 35.35L229.20 21.80L229 21.80Q229.05 22.60 229.10 23.60Q229.15 24.60 229.15 24.90L229.15 35.35L226.15 35.35M215.80 35.35L215.80 20.45L210.75 20.45L210.75 17.75L224.05 17.75L224.05 20.45L218.95 20.45L218.95 35.35L215.80 35.35Z"></path>
  </g>
</svg>